<svg xmlns="http://www.w3.org/2000/svg" viewBox="0 0 640 420">
  <rect width="640" height="420" fill="#f7f4fa"/>
  <rect x="0" y="330" width="640" height="90" fill="#e7dfed"/>
  <rect x="140" y="140" width="360" height="200" fill="#5a2d82"/>
  <rect x="140" y="140" width="360" height="30" fill="#3a1a58"/>
  <g fill="#f7f4fa">
    <rect x="170" y="190" width="34" height="34"/>
    <rect x="222" y="190" width="34" height="34"/>
    <rect x="274" y="190" width="34" height="34"/>
    <rect x="332" y="190" width="34" height="34"/>
    <rect x="384" y="190" width="34" height="34"/>
    <rect x="436" y="190" width="34" height="34"/>
    <rect x="170" y="250" width="34" height="34"/>
    <rect x="222" y="250" width="34" height="34"/>
    <rect x="274" y="250" width="34" height="34"/>
    <rect x="332" y="250" width="34" height="34"/>
    <rect x="384" y="250" width="34" height="34"/>
    <rect x="436" y="250" width="34" height="34"/>
  </g>
  <rect x="295" y="292" width="50" height="48" fill="#2b1744"/>
  <text x="320" y="390" font-family="Arial, Helvetica, sans-serif" font-size="22" font-weight="700" fill="#5a2d82" text-anchor="middle">Cameroon Oncology Center</text>
</svg>
